<svg version="1.1" id="Layer_1" xmlns="http://www.w3.org/2000/svg" xmlns:xlink="http://www.w3.org/1999/xlink" x="0px" y="0px"
	 width="100%" viewBox="0 0 2000 689" enable-background="new 0 0 2000 689" xml:space="preserve">
<path fill="#000000" opacity="1.000000" stroke="none" 
	d="
M1280.000000,690.000000 
	C853.333313,690.000000 427.166656,690.000000 1.000000,690.000000 
	C1.000000,460.333344 1.000000,230.666672 1.000000,1.000000 
	C667.666687,1.000000 1334.333374,1.000000 2001.000000,1.000000 
	C2001.000000,230.666672 2001.000000,460.333344 2001.000000,690.000000 
	C1760.833374,690.000000 1520.666626,690.000000 1280.000000,690.000000 
M555.500000,437.916260 
	C602.655945,437.937317 649.812134,438.045074 696.967834,437.946136 
	C724.104126,437.889221 747.856567,417.509552 749.841675,390.545837 
	C751.401917,369.352753 750.364868,347.950409 750.060181,326.647064 
	C749.940247,318.260559 745.507507,311.894745 738.171875,307.685181 
	C735.013550,305.872742 731.858704,304.054230 728.737488,302.258698 
	C742.469482,298.361298 749.781128,290.265808 750.317322,275.968689 
	C751.003723,257.665894 750.823181,239.320969 750.620789,220.998566 
	C750.518738,211.763809 748.419312,202.806839 743.607178,194.760208 
	C732.612976,176.375854 715.645447,167.708496 694.901062,167.423798 
	C660.751343,166.955154 626.586731,167.686127 592.428345,167.696823 
	C558.451538,167.707458 524.474609,167.458206 490.497803,167.309891 
	C486.377045,167.291901 481.445190,171.062714 481.365082,174.616318 
	C481.091125,186.766983 480.777466,198.920135 480.771912,211.072479 
	C480.766418,223.039871 481.232239,235.007034 481.272858,246.975052 
	C481.301666,255.464294 480.786804,263.955719 480.831848,272.444519 
	C480.934387,291.770874 481.365601,311.095825 481.421204,330.422058 
	C481.518555,364.246857 481.514496,398.072632 481.333740,431.896820 
	C481.308319,436.649719 482.665100,438.168152 487.518402,438.110321 
	C509.843170,437.844360 532.172363,437.946869 555.500000,437.916260 
M1113.122437,349.500031 
	C1113.122437,306.891724 1113.122437,264.283386 1113.122437,221.397232 
	C1115.162476,221.298874 1116.620605,221.168350 1118.078857,221.166916 
	C1183.571777,221.102585 1249.064697,221.048752 1314.557617,220.997452 
	C1318.223755,220.994583 1321.930298,221.341141 1325.535767,220.880463 
	C1326.965576,220.697769 1329.285034,218.779282 1329.309326,217.611847 
	C1329.623901,202.460495 1329.673096,187.301727 1329.597900,172.145752 
	C1329.581665,168.886719 1327.732422,167.028214 1324.089355,167.203690 
	C1319.099731,167.444031 1314.096313,167.463593 1309.098755,167.462723 
	C1246.104980,167.451736 1183.111206,167.368134 1120.117432,167.437393 
	C1107.523315,167.451248 1096.185913,170.980591 1085.184204,177.847504 
	C1077.718262,182.507431 1072.719116,188.624527 1068.324463,195.381851 
	C1065.553711,199.642380 1062.260986,204.338821 1063.336792,210.456985 
	C1063.885132,213.575729 1062.841431,217.008102 1062.336304,220.270691 
	C1061.529053,225.485611 1059.832520,230.672150 1059.796875,235.879456 
	C1059.570190,269.041595 1059.218872,302.215576 1059.877075,335.366455 
	C1060.296631,356.492676 1056.587891,377.938690 1063.443237,398.700775 
	C1065.274902,404.248138 1066.671753,410.200897 1069.743896,415.028503 
	C1079.543457,430.428314 1094.543579,437.588837 1112.316040,437.717773 
	C1167.641968,438.119110 1222.972778,438.100769 1278.299316,437.800690 
	C1284.740479,437.765778 1291.613281,435.931427 1297.519775,433.246033 
	C1319.003662,423.478516 1329.838745,406.264801 1330.032471,382.698029 
	C1330.228516,358.868927 1330.078979,335.035797 1329.921387,311.205505 
	C1329.855347,301.231537 1329.279541,291.261719 1329.136719,281.287140 
	C1329.078857,277.249939 1327.112427,276.083282 1323.466553,276.301666 
	C1314.390137,276.845245 1305.306152,277.722626 1296.227783,277.691040 
	C1256.780518,277.553833 1217.333984,277.149597 1177.887573,276.809418 
	C1174.269653,276.778229 1168.881470,280.620911 1168.863892,283.756104 
	C1168.780029,298.725555 1168.826416,313.695801 1168.826416,329.290283 
	C1204.629639,329.290283 1240.032471,329.290283 1274.591187,329.290283 
	C1279.516968,335.766357 1278.176147,342.252228 1277.735474,348.679352 
	C1277.155762,357.136475 1276.363892,365.611115 1276.428345,374.072418 
	C1276.515259,385.476257 1276.358154,385.965729 1265.282715,385.685577 
	C1263.950073,385.651855 1262.616699,385.641449 1261.283569,385.640961 
	C1218.620850,385.625946 1175.958008,385.651367 1133.295532,385.561096 
	C1126.676392,385.547089 1120.058350,385.005554 1113.120361,384.693634 
	C1113.120361,372.452881 1113.120361,361.476471 1113.122437,349.500031 
M1619.919067,375.494141 
	C1619.918945,324.840393 1620.290771,274.183014 1619.790527,223.534195 
	C1619.444824,188.525497 1595.975342,168.670822 1565.261475,167.644470 
	C1535.970825,166.665665 1506.602417,166.947815 1477.297852,167.754089 
	C1448.179810,168.555252 1418.817383,163.489594 1389.975342,170.795029 
	C1385.062866,172.039307 1379.468262,173.740891 1376.057861,177.118576 
	C1368.630127,184.475189 1359.242798,190.121918 1355.248657,200.944427 
	C1354.167114,203.875107 1352.574951,206.496704 1352.522705,209.816971 
	C1352.486450,212.121780 1351.892456,214.412079 1351.677368,216.720932 
	C1351.110596,222.804810 1350.071777,228.905624 1350.187988,234.981216 
	C1350.607666,256.944214 1351.397827,278.900482 1352.098755,300.857666 
	C1353.110107,332.539825 1346.537109,364.177704 1352.177490,395.982880 
	C1353.342041,402.550568 1355.270264,408.609467 1358.416504,413.736206 
	C1368.172607,429.633331 1383.373779,437.711151 1401.790894,437.844513 
	C1456.940186,438.243896 1512.094849,438.169403 1567.245483,437.896088 
	C1582.182373,437.822083 1595.040161,431.722839 1605.270752,420.697205 
	C1616.842651,408.226074 1620.780518,393.130341 1619.919067,375.494141 
M879.873169,322.499359 
	C879.904358,341.260254 879.929016,360.021149 879.970215,378.782043 
	C879.984558,385.330231 877.123169,387.629944 870.532166,386.482880 
	C868.080811,386.056244 865.573120,385.673553 863.097534,385.709564 
	C839.625305,386.051147 816.154663,386.507080 792.682617,386.863159 
	C790.540894,386.895660 788.278809,386.822144 786.265381,386.186920 
	C775.199097,382.695648 768.345032,393.492615 771.421448,402.219086 
	C772.648987,405.701172 772.716492,409.750977 772.582825,413.516479 
	C772.388428,418.993866 771.493408,424.444000 770.973022,429.912933 
	C770.461609,435.287750 772.975403,438.025116 778.403442,437.994965 
	C786.053101,437.952515 793.702332,437.758362 801.351685,437.763641 
	C839.843384,437.790131 878.335144,437.880219 916.826843,437.909698 
	C955.913879,437.939606 995.000854,437.921051 1034.087891,437.936676 
	C1037.253662,437.937958 1039.806763,437.221497 1039.845825,433.372192 
	C1039.982666,419.881866 1040.314941,406.388245 1040.126709,392.902069 
	C1040.024048,385.537872 1039.619141,385.547516 1032.373413,385.563019 
	C1001.547729,385.628845 970.722107,385.698853 939.896423,385.750732 
	C933.603455,385.761322 931.700195,384.093018 931.711365,378.779968 
	C931.811829,330.959564 931.907532,283.139191 932.002075,235.318787 
	C932.011169,230.718292 932.003296,226.117767 932.003296,221.288040 
	C934.074341,221.196228 935.545288,221.074112 937.016235,221.074188 
	C969.174561,221.075699 1001.333496,220.996750 1033.490601,221.205582 
	C1038.264404,221.236572 1040.498657,220.204163 1040.393555,215.013611 
	C1040.106934,200.856476 1040.087280,186.692581 1040.103516,172.531525 
	C1040.108154,168.494141 1038.565430,167.142563 1034.441895,167.151794 
	C961.459167,167.315231 888.476074,167.288742 815.493530,167.491501 
	C809.575378,167.507935 803.678101,169.124664 797.739075,169.556778 
	C793.534241,169.862701 788.942810,170.404526 785.112793,169.105255 
	C778.085327,166.721344 770.970398,171.135986 770.908264,178.845047 
	C770.822632,189.464310 770.661987,200.082932 770.548340,210.702011 
	C770.445923,220.266296 771.394470,221.199097 781.155701,221.172882 
	C810.982178,221.092743 840.808655,221.007782 870.635132,220.926193 
	C872.931091,220.919907 875.227112,220.925354 877.663696,220.925354 
	C878.507507,224.499924 879.821655,227.506805 879.835022,230.519470 
	C879.970154,260.845520 879.891968,291.172546 879.873169,322.499359 
M440.634338,225.957245 
	C448.205109,223.739182 455.775879,221.521118 463.763153,219.181046 
	C463.763153,213.772781 463.623322,207.779907 463.811066,201.797348 
	C463.941528,197.639679 461.428101,195.912659 458.215881,196.797913 
	C450.251343,198.992859 441.980408,197.810516 433.879578,201.175598 
	C422.999603,205.695145 413.651062,211.573914 406.624817,220.743118 
	C403.452576,224.882874 400.347260,230.015533 399.746185,235.003174 
	C398.099854,248.665085 397.690857,262.483612 396.997101,276.250488 
	C396.419037,287.722260 396.556488,299.248413 395.488556,310.667389 
	C395.105713,314.761139 393.168549,320.058838 390.108093,322.266541 
	C384.091644,326.606750 378.156616,331.459900 369.387360,331.136292 
	C356.610291,330.664764 356.469025,331.503571 356.449493,344.477814 
	C356.447723,345.644440 356.434357,346.811279 356.450012,347.977692 
	C356.524597,353.539642 358.390747,355.821136 364.008789,356.433929 
	C371.125153,357.210205 378.243805,357.860168 384.485321,361.820770 
	C389.859406,365.230988 395.063354,369.109467 395.484741,376.062439 
	C396.952240,400.276825 398.435699,424.498657 399.253754,448.739899 
	C399.587860,458.640198 403.588318,466.773254 409.997681,473.208282 
	C423.713867,486.979431 441.587677,490.689819 460.305603,491.135010 
	C461.431671,491.161835 463.515961,489.313843 463.597412,488.222076 
	C463.955933,483.416290 464.245392,478.490540 463.518829,473.768402 
	C463.169830,471.499878 460.916809,468.553711 458.813110,467.725708 
	C454.288513,465.944885 449.327087,465.207245 444.498810,464.280365 
	C437.144043,462.868439 432.329803,457.979950 429.646210,451.717957 
	C427.420837,446.525085 426.272614,440.534210 426.113739,434.855835 
	C425.657166,418.535492 426.028595,402.193756 425.909729,385.861603 
	C425.827362,374.543915 423.683136,363.574036 414.217377,356.337372 
	C408.412811,351.899719 401.252716,349.211517 394.624908,345.890167 
	C392.883392,345.017456 390.857452,344.712311 388.962128,344.146515 
	C389.016083,343.700317 389.070038,343.254089 389.123962,342.807861 
	C390.643158,342.418488 392.258698,342.241425 393.665009,341.603302 
	C400.113647,338.677063 407.174896,336.533600 412.769348,332.415283 
	C423.089142,324.818481 425.994629,313.358612 425.964966,300.988129 
	C425.924957,284.322083 425.737457,267.651337 426.059509,250.991241 
	C426.262695,240.479050 429.788422,231.401901 440.634338,225.957245 
M1675.923828,441.071106 
	C1674.943848,443.334137 1674.045166,445.636902 1672.966187,447.851654 
	C1670.991455,451.904724 1668.880981,455.891327 1666.880981,459.932404 
	C1664.755005,464.228180 1660.116089,463.343842 1656.667358,464.868683 
	C1653.904785,466.090027 1650.906494,467.308960 1647.956421,467.465210 
	C1641.622070,467.800690 1637.462158,471.608551 1637.535400,477.874359 
	C1637.566650,480.539307 1637.837769,483.229370 1637.566895,485.863495 
	C1637.144287,489.974487 1639.109863,491.430267 1642.803345,491.035980 
	C1648.417847,490.436646 1654.138428,490.169006 1659.591553,488.844727 
	C1674.667236,485.183380 1688.269043,478.906799 1696.463135,464.693817 
	C1701.419434,456.097290 1702.847046,446.592834 1702.854614,436.815887 
	C1702.867310,420.656036 1702.763916,404.495453 1702.888550,388.336548 
	C1703.025635,370.535583 1710.482422,361.436584 1728.026733,357.733093 
	C1733.165161,356.648376 1738.449707,356.256348 1744.100708,355.487915 
	C1744.100708,348.336090 1744.250000,341.361145 1743.945557,334.406006 
	C1743.897949,333.318420 1741.890259,331.604858 1740.609131,331.418732 
	C1737.005005,330.895294 1733.281250,331.247253 1729.651123,330.840973 
	C1719.907715,329.750671 1712.257690,325.127563 1706.925537,316.796844 
	C1703.041138,310.728058 1702.905396,303.933594 1702.839600,297.063568 
	C1702.660767,278.415436 1702.972168,259.734222 1701.912231,241.133179 
	C1701.244263,229.413086 1696.358398,218.600861 1686.581543,211.447861 
	C1675.476807,203.323395 1663.085815,197.981949 1648.831909,197.976151 
	C1637.214355,197.971420 1635.812866,199.135452 1636.002441,210.851715 
	C1636.021240,212.016647 1636.055054,213.187424 1636.187988,214.343292 
	C1636.655273,218.405884 1638.207764,220.623230 1643.020508,221.082458 
	C1665.129150,223.192032 1676.116089,236.136749 1676.646118,257.820801 
	C1677.088257,275.915283 1676.615723,294.030548 1676.693237,312.135986 
	C1676.751953,325.834503 1685.273682,333.380646 1696.666748,338.489136 
	C1701.054810,340.456635 1705.735840,341.770935 1710.461914,343.446198 
	C1707.209717,347.859558 1704.159668,351.344299 1698.508911,350.588348 
	C1697.530029,350.457367 1696.251343,351.223083 1695.373413,351.909943 
	C1690.989502,355.339569 1686.186768,358.429840 1682.532227,362.531403 
	C1679.794189,365.604309 1677.403687,369.884308 1676.905884,373.881836 
	C1675.593750,384.420380 1674.959473,395.094299 1674.874268,405.720886 
	C1674.782227,417.194977 1675.618652,428.676453 1675.923828,441.071106 
z"/>
<path fill="#BEFB70" opacity="1.000000" stroke="none" 
	d="
M555.000000,437.916748 
	C532.172363,437.946869 509.843170,437.844360 487.518402,438.110321 
	C482.665100,438.168152 481.308319,436.649719 481.333740,431.896820 
	C481.514496,398.072632 481.518555,364.246857 481.421204,330.422058 
	C481.365601,311.095825 480.934387,291.770874 480.831848,272.444519 
	C480.786804,263.955719 481.301666,255.464294 481.272858,246.975052 
	C481.232239,235.007034 480.766418,223.039871 480.771912,211.072479 
	C480.777466,198.920135 481.091125,186.766983 481.365082,174.616318 
	C481.445190,171.062714 486.377045,167.291901 490.497803,167.309891 
	C524.474609,167.458206 558.451538,167.707458 592.428345,167.696823 
	C626.586731,167.686127 660.751343,166.955154 694.901062,167.423798 
	C715.645447,167.708496 732.612976,176.375854 743.607178,194.760208 
	C748.419312,202.806839 750.518738,211.763809 750.620789,220.998566 
	C750.823181,239.320969 751.003723,257.665894 750.317322,275.968689 
	C749.781128,290.265808 742.469482,298.361298 728.737488,302.258698 
	C731.858704,304.054230 735.013550,305.872742 738.171875,307.685181 
	C745.507507,311.894745 749.940247,318.260559 750.060181,326.647064 
	C750.364868,347.950409 751.401917,369.352753 749.841675,390.545837 
	C747.856567,417.509552 724.104126,437.889221 696.967834,437.946136 
	C649.812134,438.045074 602.655945,437.937317 555.000000,437.916748 
M609.499939,385.686707 
	C614.499939,385.686768 619.500000,385.668488 624.499939,385.690002 
	C645.163208,385.778992 665.833374,385.596802 686.486877,386.096954 
	C696.710388,386.344574 696.914795,386.416138 697.107422,376.463898 
	C697.354675,363.686462 698.161560,350.918823 698.803040,338.150726 
	C699.015564,333.920044 695.650330,329.377869 692.023926,329.377960 
	C641.191040,329.378967 590.358215,329.391235 539.525330,329.400726 
	C537.747681,329.401062 535.970032,329.400757 534.035156,329.400757 
	C534.035156,347.893005 534.035156,365.697906 534.035156,384.035217 
	C536.685364,384.662170 539.344055,385.827850 542.006409,385.836334 
	C564.170532,385.907135 586.335327,385.764618 609.499939,385.686707 
M571.500000,220.924789 
	C559.073364,220.924789 546.646729,220.924789 534.100281,220.924789 
	C534.100281,239.535843 534.100281,257.291504 534.100281,275.470184 
	C536.802917,275.950745 539.381348,276.744843 541.978638,276.812256 
	C552.609863,277.088196 563.247864,277.310669 573.881531,277.246765 
	C606.173401,277.052734 638.464294,276.683441 670.756104,276.465820 
	C676.570312,276.426636 682.422058,276.444458 688.194275,277.039795 
	C696.275940,277.873291 697.281006,276.976776 697.232605,268.677643 
	C697.178345,259.370117 696.713989,249.943283 698.000427,240.789352 
	C698.979126,233.825363 700.094482,227.437576 695.223450,220.924210 
	C654.699280,220.924210 613.599670,220.924210 571.500000,220.924789 
z"/>
<path fill="#BEFB70" opacity="1.000000" stroke="none" 
	d="
M1113.121338,350.000061 
	C1113.120361,361.476471 1113.120361,372.452881 1113.120361,384.693634 
	C1120.058350,385.005554 1126.676392,385.547089 1133.295532,385.561096 
	C1175.958008,385.651367 1218.620850,385.625946 1261.283569,385.640961 
	C1262.616699,385.641449 1263.950073,385.651855 1265.282715,385.685577 
	C1276.358154,385.965729 1276.515259,385.476257 1276.428345,374.072418 
	C1276.363892,365.611115 1277.155762,357.136475 1277.735474,348.679352 
	C1278.176147,342.252228 1279.516968,335.766357 1274.591187,329.290283 
	C1240.032471,329.290283 1204.629639,329.290283 1168.826416,329.290283 
	C1168.826416,313.695801 1168.780029,298.725555 1168.863892,283.756104 
	C1168.881470,280.620911 1174.269653,276.778229 1177.887573,276.809418 
	C1217.333984,277.149597 1256.780518,277.553833 1296.227783,277.691040 
	C1305.306152,277.722626 1314.390137,276.845245 1323.466553,276.301666 
	C1327.112427,276.083282 1329.078857,277.249939 1329.136719,281.287140 
	C1329.279541,291.261719 1329.855347,301.231537 1329.921387,311.205505 
	C1330.078979,335.035797 1330.228516,358.868927 1330.032471,382.698029 
	C1329.838745,406.264801 1319.003662,423.478516 1297.519775,433.246033 
	C1291.613281,435.931427 1284.740479,437.765778 1278.299316,437.800690 
	C1222.972778,438.100769 1167.641968,438.119110 1112.316040,437.717773 
	C1094.543579,437.588837 1079.543457,430.428314 1069.743896,415.028503 
	C1066.671753,410.200897 1065.274902,404.248138 1063.443237,398.700775 
	C1056.587891,377.938690 1060.296631,356.492676 1059.877075,335.366455 
	C1059.218872,302.215576 1059.570190,269.041595 1059.796875,235.879456 
	C1059.832520,230.672150 1061.529053,225.485611 1062.336304,220.270691 
	C1062.841431,217.008102 1063.885132,213.575729 1063.336792,210.456985 
	C1062.260986,204.338821 1065.553711,199.642380 1068.324463,195.381851 
	C1072.719116,188.624527 1077.718262,182.507431 1085.184204,177.847504 
	C1096.185913,170.980591 1107.523315,167.451248 1120.117432,167.437393 
	C1183.111206,167.368134 1246.104980,167.451736 1309.098755,167.462723 
	C1314.096313,167.463593 1319.099731,167.444031 1324.089355,167.203690 
	C1327.732422,167.028214 1329.581665,168.886719 1329.597900,172.145752 
	C1329.673096,187.301727 1329.623901,202.460495 1329.309326,217.611847 
	C1329.285034,218.779282 1326.965576,220.697769 1325.535767,220.880463 
	C1321.930298,221.341141 1318.223755,220.994583 1314.557617,220.997452 
	C1249.064697,221.048752 1183.571777,221.102585 1118.078857,221.166916 
	C1116.620605,221.168350 1115.162476,221.298874 1113.122437,221.397232 
	C1113.122437,264.283386 1113.122437,306.891724 1113.121338,350.000061 
z"/>
<path fill="#BEFB70" opacity="1.000000" stroke="none" 
	d="
M1619.919067,375.992493 
	C1620.780518,393.130341 1616.842651,408.226074 1605.270752,420.697205 
	C1595.040161,431.722839 1582.182373,437.822083 1567.245483,437.896088 
	C1512.094849,438.169403 1456.940186,438.243896 1401.790894,437.844513 
	C1383.373779,437.711151 1368.172607,429.633331 1358.416504,413.736206 
	C1355.270264,408.609467 1353.342041,402.550568 1352.177490,395.982880 
	C1346.537109,364.177704 1353.110107,332.539825 1352.098755,300.857666 
	C1351.397827,278.900482 1350.607666,256.944214 1350.187988,234.981216 
	C1350.071777,228.905624 1351.110596,222.804810 1351.677368,216.720932 
	C1351.892456,214.412079 1352.486450,212.121780 1352.522705,209.816971 
	C1352.574951,206.496704 1354.167114,203.875107 1355.248657,200.944427 
	C1359.242798,190.121918 1368.630127,184.475189 1376.057861,177.118576 
	C1379.468262,173.740891 1385.062866,172.039307 1389.975342,170.795029 
	C1418.817383,163.489594 1448.179810,168.555252 1477.297852,167.754089 
	C1506.602417,166.947815 1535.970825,166.665665 1565.261475,167.644470 
	C1595.975342,168.670822 1619.444824,188.525497 1619.790527,223.534195 
	C1620.290771,274.183014 1619.918945,324.840393 1619.919067,375.992493 
M1471.558472,351.913116 
	C1476.389038,351.534241 1481.799194,347.567719 1482.803467,343.802368 
	C1482.803467,343.802368 1482.703247,343.755829 1483.498535,343.881653 
	C1488.288696,340.795654 1494.126099,338.592529 1497.637329,334.428192 
	C1503.755249,327.171967 1509.642944,319.217651 1513.310913,310.573090 
	C1515.847534,304.594604 1519.549194,298.255402 1518.255493,290.730652 
	C1517.519165,286.447723 1518.747803,281.832886 1519.044800,277.364410 
	C1519.265381,274.046906 1521.162598,274.110901 1523.683105,275.852203 
	C1523.120361,280.645172 1522.757324,285.471680 1521.958008,290.224884 
	C1519.414062,305.352814 1514.505005,319.420410 1504.342285,331.400452 
	C1486.912964,351.946442 1463.965576,363.615875 1439.138062,372.033234 
	C1428.801758,375.537567 1417.914551,377.404114 1407.312500,380.149628 
	C1405.686523,380.570709 1404.249023,381.719116 1402.398071,382.704895 
	C1405.911255,384.184967 1408.074219,385.144409 1410.273804,386.010803 
	C1413.029785,387.096252 1415.759888,388.772583 1418.600464,389.011322 
	C1424.891235,389.540039 1431.244629,389.414856 1437.570801,389.355682 
	C1438.973633,389.342560 1440.362671,388.479340 1441.768799,388.042328 
	C1444.394165,387.226410 1447.029297,385.733307 1449.657104,385.740845 
	C1486.472534,385.846069 1523.287720,386.141266 1560.102539,386.437073 
	C1565.336548,386.479126 1567.350342,384.696259 1567.402466,379.422699 
	C1567.448608,374.757019 1567.410889,370.090546 1567.412231,365.424408 
	C1567.425415,320.429810 1567.440796,275.435211 1567.451050,230.440613 
	C1567.452881,222.502930 1565.886719,220.913010 1558.138550,220.913498 
	C1510.978760,220.916473 1463.818970,220.918259 1416.659180,220.920380 
	C1412.213135,220.920578 1407.767090,220.920410 1402.935059,220.920410 
	C1402.935059,223.714279 1402.935181,225.684357 1402.934937,227.654449 
	C1402.928101,269.482819 1402.922607,311.311218 1402.913208,353.139587 
	C1402.911987,358.470856 1403.003418,363.805786 1402.829590,369.131775 
	C1402.749390,371.588928 1403.734131,372.400513 1406.005127,372.974182 
	C1407.705566,376.596954 1413.093994,377.094696 1417.773560,374.580200 
	C1420.247559,373.250732 1423.225098,372.879974 1425.942017,371.976501 
	C1431.283936,370.200226 1436.641968,368.461121 1441.919800,366.507721 
	C1447.437378,364.465576 1452.910645,362.288330 1458.323242,359.982605 
	C1462.251465,358.309235 1466.093506,356.412720 1469.861450,354.404633 
	C1470.472778,354.078766 1470.498657,352.654175 1470.828857,351.830383 
	C1470.828857,351.830383 1470.737183,351.793610 1471.558472,351.913116 
z"/>
<path fill="#BEFB70" opacity="1.000000" stroke="none" 
	d="
M879.873413,321.999329 
	C879.891968,291.172546 879.970154,260.845520 879.835022,230.519470 
	C879.821655,227.506805 878.507507,224.499924 877.663696,220.925354 
	C875.227112,220.925354 872.931091,220.919907 870.635132,220.926193 
	C840.808655,221.007782 810.982178,221.092743 781.155701,221.172882 
	C771.394470,221.199097 770.445923,220.266296 770.548340,210.702011 
	C770.661987,200.082932 770.822632,189.464310 770.908264,178.845047 
	C770.970398,171.135986 778.085327,166.721344 785.112793,169.105255 
	C788.942810,170.404526 793.534241,169.862701 797.739075,169.556778 
	C803.678101,169.124664 809.575378,167.507935 815.493530,167.491501 
	C888.476074,167.288742 961.459167,167.315231 1034.441895,167.151794 
	C1038.565430,167.142563 1040.108154,168.494141 1040.103516,172.531525 
	C1040.087280,186.692581 1040.106934,200.856476 1040.393555,215.013611 
	C1040.498657,220.204163 1038.264404,221.236572 1033.490601,221.205582 
	C1001.333496,220.996750 969.174561,221.075699 937.016235,221.074188 
	C935.545288,221.074112 934.074341,221.196228 932.003296,221.288040 
	C932.003296,226.117767 932.011169,230.718292 932.002075,235.318787 
	C931.907532,283.139191 931.811829,330.959564 931.711365,378.779968 
	C931.700195,384.093018 933.603455,385.761322 939.896423,385.750732 
	C970.722107,385.698853 1001.547729,385.628845 1032.373413,385.563019 
	C1039.619141,385.547516 1040.024048,385.537872 1040.126709,392.902069 
	C1040.314941,406.388245 1039.982666,419.881866 1039.845825,433.372192 
	C1039.806763,437.221497 1037.253662,437.937958 1034.087891,437.936676 
	C995.000854,437.921051 955.913879,437.939606 916.826843,437.909698 
	C878.335144,437.880219 839.843384,437.790131 801.351685,437.763641 
	C793.702332,437.758362 786.053101,437.952515 778.403442,437.994965 
	C772.975403,438.025116 770.461609,435.287750 770.973022,429.912933 
	C771.493408,424.444000 772.388428,418.993866 772.582825,413.516479 
	C772.716492,409.750977 772.648987,405.701172 771.421448,402.219086 
	C768.345032,393.492615 775.199097,382.695648 786.265381,386.186920 
	C788.278809,386.822144 790.540894,386.895660 792.682617,386.863159 
	C816.154663,386.507080 839.625305,386.051147 863.097534,385.709564 
	C865.573120,385.673553 868.080811,386.056244 870.532166,386.482880 
	C877.123169,387.629944 879.984558,385.330231 879.970215,378.782043 
	C879.929016,360.021149 879.904358,341.260254 879.873413,321.999329 
z"/>
<path fill="#BCF86F" opacity="1.000000" stroke="none" 
	d="
M440.296570,226.121475 
	C429.788422,231.401901 426.262695,240.479050 426.059509,250.991241 
	C425.737457,267.651337 425.924957,284.322083 425.964966,300.988129 
	C425.994629,313.358612 423.089142,324.818481 412.769348,332.415283 
	C407.174896,336.533600 400.113647,338.677063 393.665009,341.603302 
	C392.258698,342.241425 390.643158,342.418488 389.123962,342.807861 
	C389.070038,343.254089 389.016083,343.700317 388.962128,344.146515 
	C390.857452,344.712311 392.883392,345.017456 394.624908,345.890167 
	C401.252716,349.211517 408.412811,351.899719 414.217377,356.337372 
	C423.683136,363.574036 425.827362,374.543915 425.909729,385.861603 
	C426.028595,402.193756 425.657166,418.535492 426.113739,434.855835 
	C426.272614,440.534210 427.420837,446.525085 429.646210,451.717957 
	C432.329803,457.979950 437.144043,462.868439 444.498810,464.280365 
	C449.327087,465.207245 454.288513,465.944885 458.813110,467.725708 
	C460.916809,468.553711 463.169830,471.499878 463.518829,473.768402 
	C464.245392,478.490540 463.955933,483.416290 463.597412,488.222076 
	C463.515961,489.313843 461.431671,491.161835 460.305603,491.135010 
	C441.587677,490.689819 423.713867,486.979431 409.997681,473.208282 
	C403.588318,466.773254 399.587860,458.640198 399.253754,448.739899 
	C398.435699,424.498657 396.952240,400.276825 395.484741,376.062439 
	C395.063354,369.109467 389.859406,365.230988 384.485321,361.820770 
	C378.243805,357.860168 371.125153,357.210205 364.008789,356.433929 
	C358.390747,355.821136 356.524597,353.539642 356.450012,347.977692 
	C356.434357,346.811279 356.447723,345.644440 356.449493,344.477814 
	C356.469025,331.503571 356.610291,330.664764 369.387360,331.136292 
	C378.156616,331.459900 384.091644,326.606750 390.108093,322.266541 
	C393.168549,320.058838 395.105713,314.761139 395.488556,310.667389 
	C396.556488,299.248413 396.419037,287.722260 396.997101,276.250488 
	C397.690857,262.483612 398.099854,248.665085 399.746185,235.003174 
	C400.347260,230.015533 403.452576,224.882874 406.624817,220.743118 
	C413.651062,211.573914 422.999603,205.695145 433.879578,201.175598 
	C441.980408,197.810516 450.251343,198.992859 458.215881,196.797913 
	C461.428101,195.912659 463.941528,197.639679 463.811066,201.797348 
	C463.623322,207.779907 463.763153,213.772781 463.763153,219.181046 
	C455.775879,221.521118 448.205109,223.739182 440.296570,226.121475 
z"/>
<path fill="#BBF86E" opacity="1.000000" stroke="none" 
	d="
M1675.987061,440.612915 
	C1675.618652,428.676453 1674.782227,417.194977 1674.874268,405.720886 
	C1674.959473,395.094299 1675.593750,384.420380 1676.905884,373.881836 
	C1677.403687,369.884308 1679.794189,365.604309 1682.532227,362.531403 
	C1686.186768,358.429840 1690.989502,355.339569 1695.373413,351.909943 
	C1696.251343,351.223083 1697.530029,350.457367 1698.508911,350.588348 
	C1704.159668,351.344299 1707.209717,347.859558 1710.461914,343.446198 
	C1705.735840,341.770935 1701.054810,340.456635 1696.666748,338.489136 
	C1685.273682,333.380646 1676.751953,325.834503 1676.693237,312.135986 
	C1676.615723,294.030548 1677.088257,275.915283 1676.646118,257.820801 
	C1676.116089,236.136749 1665.129150,223.192032 1643.020508,221.082458 
	C1638.207764,220.623230 1636.655273,218.405884 1636.187988,214.343292 
	C1636.055054,213.187424 1636.021240,212.016647 1636.002441,210.851715 
	C1635.812866,199.135452 1637.214355,197.971420 1648.831909,197.976151 
	C1663.085815,197.981949 1675.476807,203.323395 1686.581543,211.447861 
	C1696.358398,218.600861 1701.244263,229.413086 1701.912231,241.133179 
	C1702.972168,259.734222 1702.660767,278.415436 1702.839600,297.063568 
	C1702.905396,303.933594 1703.041138,310.728058 1706.925537,316.796844 
	C1712.257690,325.127563 1719.907715,329.750671 1729.651123,330.840973 
	C1733.281250,331.247253 1737.005005,330.895294 1740.609131,331.418732 
	C1741.890259,331.604858 1743.897949,333.318420 1743.945557,334.406006 
	C1744.250000,341.361145 1744.100708,348.336090 1744.100708,355.487915 
	C1738.449707,356.256348 1733.165161,356.648376 1728.026733,357.733093 
	C1710.482422,361.436584 1703.025635,370.535583 1702.888550,388.336548 
	C1702.763916,404.495453 1702.867310,420.656036 1702.854614,436.815887 
	C1702.847046,446.592834 1701.419434,456.097290 1696.463135,464.693817 
	C1688.269043,478.906799 1674.667236,485.183380 1659.591553,488.844727 
	C1654.138428,490.169006 1648.417847,490.436646 1642.803345,491.035980 
	C1639.109863,491.430267 1637.144287,489.974487 1637.566895,485.863495 
	C1637.837769,483.229370 1637.566650,480.539307 1637.535400,477.874359 
	C1637.462158,471.608551 1641.622070,467.800690 1647.956421,467.465210 
	C1650.906494,467.308960 1653.904785,466.090027 1656.667358,464.868683 
	C1660.116089,463.343842 1664.755005,464.228180 1666.880981,459.932404 
	C1668.880981,455.891327 1670.991455,451.904724 1672.966187,447.851654 
	C1674.045166,445.636902 1674.943848,443.334137 1675.987061,440.612915 
z"/>
<path fill="#040502" opacity="1.000000" stroke="none" 
	d="
M608.999878,385.686615 
	C586.335327,385.764618 564.170532,385.907135 542.006409,385.836334 
	C539.344055,385.827850 536.685364,384.662170 534.035156,384.035217 
	C534.035156,365.697906 534.035156,347.893005 534.035156,329.400757 
	C535.970032,329.400757 537.747681,329.401062 539.525330,329.400726 
	C590.358215,329.391235 641.191040,329.378967 692.023926,329.377960 
	C695.650330,329.377869 699.015564,333.920044 698.803040,338.150726 
	C698.161560,350.918823 697.354675,363.686462 697.107422,376.463898 
	C696.914795,386.416138 696.710388,386.344574 686.486877,386.096954 
	C665.833374,385.596802 645.163208,385.778992 624.499939,385.690002 
	C619.500000,385.668488 614.499939,385.686768 608.999878,385.686615 
z"/>
<path fill="#020301" opacity="1.000000" stroke="none" 
	d="
M572.000000,220.924500 
	C613.599670,220.924210 654.699280,220.924210 695.223450,220.924210 
	C700.094482,227.437576 698.979126,233.825363 698.000427,240.789352 
	C696.713989,249.943283 697.178345,259.370117 697.232605,268.677643 
	C697.281006,276.976776 696.275940,277.873291 688.194275,277.039795 
	C682.422058,276.444458 676.570312,276.426636 670.756104,276.465820 
	C638.464294,276.683441 606.173401,277.052734 573.881531,277.246765 
	C563.247864,277.310669 552.609863,277.088196 541.978638,276.812256 
	C539.381348,276.744843 536.802917,275.950745 534.100281,275.470184 
	C534.100281,257.291504 534.100281,239.535843 534.100281,220.924789 
	C546.646729,220.924789 559.073364,220.924789 572.000000,220.924500 
z"/>
<path fill="#020301" opacity="1.000000" stroke="none" 
	d="
M1405.981079,372.183990 
	C1403.734131,372.400513 1402.749390,371.588928 1402.829590,369.131775 
	C1403.003418,363.805786 1402.911987,358.470856 1402.913208,353.139587 
	C1402.922607,311.311218 1402.928101,269.482819 1402.934937,227.654449 
	C1402.935181,225.684357 1402.935059,223.714279 1402.935059,220.920410 
	C1407.767090,220.920410 1412.213135,220.920578 1416.659180,220.920380 
	C1463.818970,220.918259 1510.978760,220.916473 1558.138550,220.913498 
	C1565.886719,220.913010 1567.452881,222.502930 1567.451050,230.440613 
	C1567.440796,275.435211 1567.425415,320.429810 1567.412231,365.424408 
	C1567.410889,370.090546 1567.448608,374.757019 1567.402466,379.422699 
	C1567.350342,384.696259 1565.336548,386.479126 1560.102539,386.437073 
	C1523.287720,386.141266 1486.472534,385.846069 1449.657104,385.740845 
	C1447.029297,385.733307 1444.394165,387.226410 1441.768799,388.042328 
	C1440.362671,388.479340 1438.973633,389.342560 1437.570801,389.355682 
	C1431.244629,389.414856 1424.891235,389.540039 1418.600464,389.011322 
	C1415.759888,388.772583 1413.029785,387.096252 1410.273804,386.010803 
	C1408.074219,385.144409 1405.911255,384.184967 1402.398071,382.704895 
	C1404.249023,381.719116 1405.686523,380.570709 1407.312500,380.149628 
	C1417.914551,377.404114 1428.801758,375.537567 1439.138062,372.033234 
	C1463.965576,363.615875 1486.912964,351.946442 1504.342285,331.400452 
	C1514.505005,319.420410 1519.414062,305.352814 1521.958008,290.224884 
	C1522.757324,285.471680 1523.120361,280.645172 1523.712036,275.098175 
	C1522.883545,273.051025 1521.868896,271.832794 1521.208862,270.445770 
	C1520.392700,268.730682 1518.952515,266.611725 1519.379150,265.125916 
	C1521.363403,258.215698 1523.899780,251.464050 1526.587769,243.639389 
	C1530.420166,251.919296 1533.847046,259.440552 1537.389648,266.906799 
	C1538.490845,269.227692 1539.545044,272.636902 1542.866211,271.054077 
	C1544.012451,270.507690 1544.591797,266.571564 1543.907227,264.758850 
	C1540.704590,256.277313 1537.158081,247.909348 1533.338745,239.684555 
	C1531.684814,236.122940 1529.304443,232.822861 1526.841187,229.733139 
	C1524.126831,226.328354 1520.309814,226.232803 1518.069336,229.741562 
	C1515.578857,233.641998 1514.314331,238.334137 1512.588013,242.709991 
	C1511.726074,244.895111 1511.066284,247.159302 1510.231567,249.356049 
	C1509.833252,250.403946 1509.177979,251.351883 1508.745361,252.389374 
	C1506.571655,257.602905 1504.355957,262.801544 1502.343750,268.077454 
	C1501.908813,269.218262 1502.251465,270.655640 1502.236084,271.956421 
	C1503.766602,271.857391 1505.579346,272.226990 1506.745972,271.524139 
	C1507.857300,270.854614 1508.402100,269.114349 1509.009521,267.761200 
	C1511.759033,261.637268 1514.442383,255.483643 1517.149536,249.340729 
	C1518.209839,256.216919 1518.431885,262.930542 1518.150513,269.622955 
	C1517.836426,277.092133 1517.451904,284.598663 1516.371460,291.982635 
	C1515.491699,297.994415 1514.079712,304.058472 1511.890747,309.706726 
	C1510.186523,314.104004 1507.236572,318.144257 1504.277100,321.899414 
	C1500.025024,327.294556 1495.401855,332.420624 1490.655518,337.392822 
	C1488.332397,339.826538 1485.374023,341.653961 1482.703247,343.755798 
	C1482.703247,343.755829 1482.803467,343.802368 1482.431396,343.857361 
	C1478.285156,346.539429 1474.511230,349.166504 1470.737183,351.793579 
	C1470.737183,351.793610 1470.828857,351.830383 1470.459229,351.905029 
	C1466.131836,354.016022 1462.305298,356.386475 1458.183472,358.005127 
	C1452.903687,360.078461 1447.385010,361.542816 1441.971436,363.276428 
	C1435.099731,365.476990 1428.232178,367.690155 1421.358154,369.883728 
	C1420.098877,370.285553 1418.437256,370.234802 1417.612549,371.050995 
	C1413.955566,374.669952 1410.127075,374.587952 1405.981079,372.183990 
z"/>
<path fill="#AEE767" opacity="1.000000" stroke="none" 
	d="
M1483.100830,343.818726 
	C1485.374023,341.653961 1488.332397,339.826538 1490.655518,337.392822 
	C1495.401855,332.420624 1500.025024,327.294556 1504.277100,321.899414 
	C1507.236572,318.144257 1510.186523,314.104004 1511.890747,309.706726 
	C1514.079712,304.058472 1515.491699,297.994415 1516.371460,291.982635 
	C1517.451904,284.598663 1517.836426,277.092133 1518.150513,269.622955 
	C1518.431885,262.930542 1518.209839,256.216919 1517.149536,249.340729 
	C1514.442383,255.483643 1511.759033,261.637268 1509.009521,267.761200 
	C1508.402100,269.114349 1507.857300,270.854614 1506.745972,271.524139 
	C1505.579346,272.226990 1503.766602,271.857391 1502.236084,271.956421 
	C1502.251465,270.655640 1501.908813,269.218262 1502.343750,268.077454 
	C1504.355957,262.801544 1506.571655,257.602905 1508.745361,252.389374 
	C1509.177979,251.351883 1509.833252,250.403946 1510.231567,249.356049 
	C1511.066284,247.159302 1511.726074,244.895111 1512.588013,242.709991 
	C1514.314331,238.334137 1515.578857,233.641998 1518.069336,229.741562 
	C1520.309814,226.232803 1524.126831,226.328354 1526.841187,229.733139 
	C1529.304443,232.822861 1531.684814,236.122940 1533.338745,239.684555 
	C1537.158081,247.909348 1540.704590,256.277313 1543.907227,264.758850 
	C1544.591797,266.571564 1544.012451,270.507690 1542.866211,271.054077 
	C1539.545044,272.636902 1538.490845,269.227692 1537.389648,266.906799 
	C1533.847046,259.440552 1530.420166,251.919296 1526.587769,243.639389 
	C1523.899780,251.464050 1521.363403,258.215698 1519.379150,265.125916 
	C1518.952515,266.611725 1520.392700,268.730682 1521.208862,270.445770 
	C1521.868896,271.832794 1522.883545,273.051025 1523.641113,274.693542 
	C1521.162598,274.110901 1519.265381,274.046906 1519.044800,277.364410 
	C1518.747803,281.832886 1517.519165,286.447723 1518.255493,290.730652 
	C1519.549194,298.255402 1515.847534,304.594604 1513.310913,310.573090 
	C1509.642944,319.217651 1503.755249,327.171967 1497.637329,334.428192 
	C1494.126099,338.592529 1488.288696,340.795654 1483.100830,343.818726 
z"/>
<path fill="#AEE767" opacity="1.000000" stroke="none" 
	d="
M1405.993164,372.579102 
	C1410.127075,374.587952 1413.955566,374.669952 1417.612549,371.050995 
	C1418.437256,370.234802 1420.098877,370.285553 1421.358154,369.883728 
	C1428.232178,367.690155 1435.099731,365.476990 1441.971436,363.276428 
	C1447.385010,361.542816 1452.903687,360.078461 1458.183472,358.005127 
	C1462.305298,356.386475 1466.131836,354.016022 1470.442383,351.858582 
	C1470.498657,352.654175 1470.472778,354.078766 1469.861450,354.404633 
	C1466.093506,356.412720 1462.251465,358.309235 1458.323242,359.982605 
	C1452.910645,362.288330 1447.437378,364.465576 1441.919800,366.507721 
	C1436.641968,368.461121 1431.283936,370.200226 1425.942017,371.976501 
	C1423.225098,372.879974 1420.247559,373.250732 1417.773560,374.580200 
	C1413.093994,377.094696 1407.705566,376.596954 1405.993164,372.579102 
z"/>
<path fill="#AEE767" opacity="1.000000" stroke="none" 
	d="
M1471.147827,351.853333 
	C1474.511230,349.166504 1478.285156,346.539429 1482.409180,343.806702 
	C1481.799194,347.567719 1476.389038,351.534241 1471.147827,351.853333 
z"/>
</svg>